<svg width="184" height="41" viewBox="0 0 184 41" fill="none" xmlns="http://www.w3.org/2000/svg">
<g clip-path="url(#clip0_201_1861)">
<rect x="0.0300293" y="2.0188" width="36.0902" height="36.0902" rx="6.01504" fill="#E73C34"/>
<path d="M36.122 22.991L36.1202 32.3195C36.1202 34.0812 36.2918 35.1031 34.7222 36.6919C33.182 38.2507 31.4483 38.0859 29.9255 38.109C30.7435 37.9061 31.4116 37.3215 31.608 36.5368C31.6139 36.5114 31.6197 36.4861 31.6255 36.4607C31.6255 36.4565 31.6284 36.4508 31.6299 36.4466C31.6401 36.4072 31.6488 36.3649 31.6575 36.3226C31.6692 36.2677 31.6823 36.2142 31.6925 36.1578C31.7041 36.1 31.7143 36.0423 31.7245 35.9831C31.7347 35.9268 31.7449 35.8718 31.7536 35.8155C31.7623 35.7563 31.7696 35.6971 31.7783 35.6379C31.7871 35.5802 31.7929 35.5238 31.8002 35.4647C31.806 35.4055 31.8118 35.3449 31.8162 35.2843C31.8205 35.2252 31.8278 35.1674 31.8307 35.1068C31.8351 35.0448 31.8366 34.9843 31.8395 34.9209C31.8409 34.8603 31.8438 34.8011 31.8453 34.7405C31.8453 34.6785 31.8453 34.6151 31.8453 34.5517C31.8453 34.4898 31.8453 34.4292 31.8453 34.3658C31.8438 34.3024 31.8395 34.2376 31.8366 34.1742C31.8336 34.1108 31.8307 34.0474 31.8249 33.9826C31.8205 33.9178 31.8133 33.853 31.806 33.7868C31.8002 33.7234 31.7943 33.6586 31.7871 33.5937C31.7783 33.5275 31.7682 33.4613 31.7594 33.3937C31.7507 33.3275 31.7405 33.2627 31.7303 33.1965C31.7187 33.1288 31.7056 33.0598 31.6925 32.9922C31.6808 32.926 31.6677 32.8597 31.6546 32.7921C31.6401 32.7231 31.6226 32.6527 31.6051 32.5836C31.5891 32.516 31.5731 32.4484 31.5557 32.3807C31.5367 32.3103 31.5164 32.2385 31.496 32.168C31.4771 32.099 31.4581 32.0314 31.4363 31.9609C31.4145 31.8905 31.3883 31.8186 31.365 31.7468C31.3402 31.6763 31.3184 31.6059 31.2937 31.5355C31.2675 31.4622 31.2384 31.3875 31.2093 31.3143C31.1816 31.2438 31.1554 31.172 31.1277 31.1015C31.0972 31.0269 31.0637 30.9508 31.0317 30.8761C30.9997 30.8029 30.9706 30.731 30.9371 30.6592C30.9036 30.5831 30.8658 30.5084 30.8294 30.4324C30.7944 30.3591 30.7595 30.2844 30.7217 30.2098C30.6824 30.1337 30.6402 30.0562 30.5994 29.9787C30.5601 29.904 30.5223 29.8294 30.4801 29.7547C30.4379 29.6758 30.3898 29.5969 30.3447 29.5194C30.301 29.4434 30.2588 29.3687 30.2137 29.2912C30.1657 29.2123 30.1133 29.132 30.0624 29.0517C30.0143 28.9756 29.9677 28.8981 29.9168 28.8221C29.863 28.7404 29.8047 28.6572 29.7494 28.5755C29.6985 28.498 29.6475 28.422 29.5922 28.3445C29.534 28.2614 29.47 28.1768 29.4103 28.0937C29.3535 28.0162 29.2982 27.9387 29.2386 27.8598C29.1745 27.7753 29.1076 27.6894 29.0406 27.6048C28.9795 27.5259 28.9198 27.4485 28.8558 27.3696C28.7859 27.2822 28.7102 27.1949 28.6389 27.1075C28.5734 27.0286 28.5094 26.9511 28.441 26.8723C28.3653 26.7821 28.2838 26.6933 28.2037 26.6032C28.1353 26.5243 28.0684 26.4468 27.9956 26.3679C27.9126 26.2777 27.8253 26.1847 27.7394 26.0932C27.6652 26.0143 27.5939 25.9354 27.5182 25.8565C27.4294 25.7649 27.3363 25.6719 27.2431 25.579C27.1645 25.4987 27.0888 25.4198 27.0059 25.338C26.9113 25.2437 26.8094 25.1493 26.7104 25.0549C26.6275 24.9746 26.546 24.8957 26.4601 24.814C26.3567 24.7168 26.2461 24.6181 26.1384 24.5195C26.0526 24.4406 25.9681 24.3617 25.8808 24.2828C25.7658 24.18 25.645 24.0772 25.5257 23.9729C25.4383 23.8968 25.3539 23.8222 25.2651 23.7447C25.14 23.639 25.0104 23.5319 24.8809 23.4263C24.7907 23.3502 24.7033 23.2769 24.6116 23.2009C24.4588 23.0755 24.2987 22.9501 24.1386 22.8247C24.0658 22.7669 23.9974 22.7106 23.9232 22.6528C23.6889 22.4697 23.4458 22.2851 23.1984 22.0992C22.7006 21.7258 21.9525 21.8907 21.6905 22.4302L18.2149 29.6406L15.8963 27.5555L16.7158 17.4233C16.7158 17.4233 10.9187 12.5206 12.2621 11.285C13.6054 10.0481 19.5059 13.9224 19.5059 13.9224L30.3636 11.0681L33.0475 12.7953L25.7833 17.6346C25.4878 17.8318 25.5621 18.2517 25.9085 18.3559C29.7276 19.4943 33.0693 21.0735 35.9482 22.9106C36.0021 22.9445 36.0588 22.9712 36.1156 22.991H36.122Z" fill="white"/>
</g>
<path d="M58.364 9.82556C58.364 9.95388 58.3078 10.018 58.1956 10.018C58.0191 10.018 57.8587 9.70526 57.7143 9.0797C57.4256 7.84461 57.0246 7.00251 56.5113 6.55338C55.9981 6.10426 55.18 5.8797 54.0572 5.8797C53.6241 5.8797 53.2472 5.89574 52.9264 5.92782L52.9504 20.5564C52.9665 20.9574 53.0788 21.214 53.2873 21.3263C53.4958 21.4386 54.0572 21.5348 54.9715 21.615C55.1479 21.6311 55.2362 21.7033 55.2362 21.8316C55.2362 21.992 55.1078 22.0722 54.8512 22.0722C54.8031 22.0722 54.6828 22.0642 54.4903 22.0481C54.2497 22.0321 54.0492 22.0241 53.8888 22.0241L51.4106 21.9519L47.3204 22.0241C47.0958 22.0241 46.9835 21.9599 46.9835 21.8316C46.9835 21.7353 47.0156 21.6792 47.0798 21.6632C47.1439 21.6471 47.4086 21.6311 47.8737 21.615C48.756 21.583 49.2291 21.3744 49.2933 20.9895C49.3254 20.781 49.3414 19.1529 49.3414 16.1053V5.92782C49.165 5.91178 48.9565 5.90376 48.7159 5.90376C47.4326 5.90376 46.4943 6.14436 45.9008 6.62556C45.3234 7.09073 44.9464 7.92481 44.77 9.12782C44.6577 9.83358 44.5133 10.1865 44.3369 10.1865C44.1925 10.1865 44.1204 10.0902 44.1204 9.89774C44.1204 9.76942 44.1524 9.32832 44.2166 8.57444C44.3449 7.00251 44.4251 5.92782 44.4572 5.35038H44.8181L46.5745 5.32632C46.6226 5.32632 47.176 5.34236 48.2346 5.37444C49.3093 5.40652 50.6727 5.42256 52.3249 5.42256C53.2392 5.42256 54.0572 5.41454 54.779 5.3985C55.5008 5.38246 56.1585 5.37444 56.7519 5.37444C57.2813 5.37444 57.6823 5.3584 57.9549 5.32632C58.0031 6.36892 58.1234 7.70025 58.3159 9.3203C58.3479 9.59298 58.364 9.7614 58.364 9.82556ZM72.2452 21.9278C72.2452 22.0241 72.173 22.0722 72.0286 22.0722C72.0447 22.0722 71.8843 22.0722 71.5474 22.0722C71.2106 22.0561 70.9299 22.0481 70.7053 22.0481H70.1038C68.7244 22.0481 67.8742 22.0321 67.5534 22H67.1685L66.591 22.0241C66.3825 22.0401 66.2783 21.984 66.2783 21.8556C66.2783 21.7594 66.3184 21.7113 66.3986 21.7113L66.9519 21.7353C67.3048 21.7514 67.5053 21.6551 67.5534 21.4466C67.5855 21.3183 67.6016 20.5163 67.6016 19.0406V15.4556C67.6016 13.9639 67.5294 13.0817 67.385 12.809C67.1765 12.392 66.7755 12.1835 66.182 12.1835C65.5565 12.1835 65.0752 12.4642 64.7384 13.0256C64.578 13.2982 64.4978 13.8837 64.4978 14.782V18.5594C64.4978 19.7303 64.5058 20.3719 64.5219 20.4842V20.7729L64.4978 21.3504C64.4818 21.591 64.8186 21.7113 65.5083 21.7113C65.6527 21.7113 65.7249 21.7594 65.7249 21.8556C65.7249 21.9679 65.6206 22.0241 65.4121 22.0241C65.4121 22.0241 65.3479 22.0241 65.2196 22.0241C65.0913 22.008 64.8988 22 64.6422 22H63.5835L62.2361 22.0241L60.8166 22.0722H60.0948C59.8542 22.0722 59.7339 22.0241 59.7339 21.9278C59.7339 21.8797 59.7499 21.8476 59.782 21.8316C59.8141 21.8155 59.8863 21.8075 59.9986 21.8075C60.6081 21.8075 60.969 21.7835 61.0813 21.7353C61.1935 21.6872 61.2657 21.5028 61.2978 21.182C61.3138 20.9895 61.3219 20.0271 61.3219 18.2947V9.46466C61.3219 7.73233 61.2818 6.73784 61.2016 6.4812C61.1374 6.20852 60.8006 6.07218 60.191 6.07218C59.7259 6.07218 59.4933 6.02406 59.4933 5.92782C59.4933 5.83158 59.766 5.76742 60.3113 5.73534C61.5464 5.65514 62.7093 5.44662 63.8001 5.10977C64.0086 5.04561 64.161 5.01353 64.2572 5.01353C64.3855 5.01353 64.4497 5.46266 64.4497 6.3609V6.8421C64.4497 7.16291 64.4497 7.58797 64.4497 8.11729C64.4336 8.63058 64.4256 8.98346 64.4256 9.17594V13.0015C64.8908 12.3439 65.3399 11.8947 65.773 11.6541C66.2221 11.4135 66.8236 11.2932 67.5775 11.2932C69.1655 11.2932 70.16 11.9348 70.561 13.218C70.7053 13.6351 70.7775 14.3088 70.7775 15.2391V20.8451C70.7775 21.2622 70.8417 21.5188 70.97 21.615C71.1143 21.7113 71.4592 21.7594 72.0046 21.7594C72.165 21.7594 72.2452 21.8155 72.2452 21.9278ZM83.7972 19.0647C83.7972 19.4175 83.5887 19.8827 83.1717 20.4602C82.2734 21.6952 81.1025 22.3128 79.6589 22.3128C78.0388 22.3128 76.7075 21.7995 75.6649 20.7729C74.6223 19.7464 74.101 18.4311 74.101 16.8271C74.101 15.2551 74.6063 13.9479 75.6168 12.9053C76.6273 11.8466 77.8865 11.3173 79.3942 11.3173C80.4208 11.3173 81.295 11.5419 82.0168 11.991C82.8188 12.4882 83.3401 13.202 83.5807 14.1323C83.6449 14.4211 83.693 14.7659 83.7251 15.1669C83.3561 15.199 81.8724 15.2231 79.2739 15.2391C78.8729 15.2391 78.3677 15.2551 77.7581 15.2872C77.71 15.8647 77.686 16.3539 77.686 16.7549C77.686 18.6316 78.0789 19.9629 78.8649 20.7489C79.3301 21.214 79.8995 21.4466 80.5732 21.4466C81.1346 21.4466 81.6719 21.2541 82.1852 20.8692C82.7145 20.4842 83.1155 19.987 83.3882 19.3774C83.5165 19.0727 83.6208 18.9203 83.701 18.9203C83.7652 18.9203 83.7972 18.9684 83.7972 19.0647ZM80.7657 14.8782C80.7817 13.6431 80.6935 12.785 80.501 12.3038C80.3085 11.8226 79.9717 11.582 79.4905 11.582C78.512 11.582 77.9506 12.6807 77.8063 14.8782C78.1431 14.8622 78.8489 14.8541 79.9236 14.8541C80.2444 14.8541 80.5251 14.8622 80.7657 14.8782ZM101.501 17.2602C101.501 18.7198 100.979 19.9308 99.9367 20.8932C98.9101 21.8396 97.5949 22.3128 95.9908 22.3128C95.0124 22.3128 93.665 21.984 91.9487 21.3263C91.8204 21.2782 91.7081 21.2541 91.6119 21.2541C91.3392 21.2541 91.1307 21.5429 90.9863 22.1203C90.9382 22.2967 90.8741 22.385 90.7939 22.385C90.6655 22.385 90.6014 22.2727 90.6014 22.0481C90.6014 21.8396 90.6415 21.4707 90.7217 20.9414C90.7858 20.5083 90.8179 20.003 90.8179 19.4256C90.8179 18.9604 90.8099 18.5915 90.7939 18.3188C90.7618 17.7734 90.7457 17.4526 90.7457 17.3564C90.7457 17.0997 90.8259 16.9714 90.9863 16.9714C91.1467 16.9714 91.2911 17.3163 91.4194 18.006C91.644 19.193 92.1492 20.1153 92.9352 20.7729C93.7853 21.4787 94.6996 21.8316 95.6781 21.8316C96.5442 21.8316 97.2741 21.5589 97.8675 21.0135C98.461 20.4682 98.7578 19.8025 98.7578 19.0165C98.7578 18.3429 98.5653 17.8055 98.1803 17.4045C97.8916 17.1158 96.9613 16.5464 95.3893 15.6962C93.641 14.7659 92.454 13.8356 91.8284 12.9053C91.251 12.0551 90.9623 11.0446 90.9623 9.87368C90.9623 8.49424 91.4515 7.35539 92.4299 6.45714C93.4084 5.54286 94.6435 5.08571 96.1352 5.08571C96.9372 5.08571 97.7954 5.2782 98.7096 5.66316C99.0144 5.79148 99.2309 5.85564 99.3593 5.85564C99.5999 5.85564 99.7603 5.64712 99.8405 5.23007C99.8726 5.08571 99.9447 5.01353 100.057 5.01353C100.217 5.01353 100.298 5.11779 100.298 5.32632C100.298 5.40652 100.282 5.63108 100.249 6C100.217 6.36892 100.201 6.67368 100.201 6.91429C100.201 7.74837 100.233 8.45413 100.298 9.03158C100.314 9.0797 100.322 9.14386 100.322 9.22406C100.322 9.36842 100.258 9.4406 100.129 9.4406C99.9848 9.4406 99.8405 9.18396 99.6961 8.67068C99.5518 8.15739 99.2951 7.65213 98.9262 7.15489C98.5733 6.6416 98.2124 6.27268 97.8435 6.04812C97.3623 5.7594 96.8009 5.61504 96.1593 5.61504C95.261 5.61504 94.5472 5.83158 94.0179 6.26466C93.4886 6.69774 93.2239 7.29123 93.2239 8.04511C93.2239 8.70276 93.4726 9.28822 93.9698 9.8015C94.467 10.2987 95.4214 10.9404 96.833 11.7263C98.5653 12.6887 99.7122 13.4586 100.274 14.0361C101.092 14.8862 101.501 15.9609 101.501 17.2602ZM116.661 21.8556C116.661 21.9679 116.364 22.0241 115.771 22.0241H115.362C115.057 22.0241 114.64 22.016 114.11 22C113.597 21.984 113.1 21.9759 112.619 21.9759C112.025 21.9759 111.576 21.984 111.271 22C110.967 22.016 110.75 22.0241 110.622 22.0241C110.397 22.0241 110.285 21.9679 110.285 21.8556C110.285 21.7434 110.501 21.6792 110.934 21.6632C111.207 21.6471 111.343 21.5589 111.343 21.3985C111.343 21.2381 111.007 20.6125 110.333 19.5218C110.14 19.2331 109.86 18.784 109.491 18.1744C109.234 17.7253 108.865 17.1398 108.384 16.418V19.9789C108.384 20.8291 108.408 21.3263 108.456 21.4707C108.52 21.615 108.705 21.6872 109.01 21.6872C109.106 21.6872 109.186 21.6792 109.25 21.6632H109.443C109.603 21.6632 109.683 21.7273 109.683 21.8556C109.683 21.984 109.595 22.0481 109.419 22.0481H109.322L108.697 22.0241H107.903L106.411 22H104.077C103.997 22.016 103.909 22.0241 103.813 22.0241C103.636 22.0241 103.548 21.9679 103.548 21.8556C103.548 21.7434 103.757 21.6792 104.174 21.6632C104.703 21.6471 105 21.599 105.064 21.5188C105.144 21.4386 105.184 21.0376 105.184 20.3158L105.16 7.63609C105.16 7.01053 105.088 6.62556 104.943 6.4812C104.815 6.33684 104.454 6.27268 103.861 6.28872C103.556 6.28872 103.404 6.23258 103.404 6.1203C103.404 6.02406 103.436 5.96792 103.5 5.95188C103.564 5.93584 103.797 5.9198 104.198 5.90376C105.818 5.8396 106.957 5.63108 107.614 5.27819C107.839 5.14987 108.031 5.07769 108.192 5.06165C108.256 5.28621 108.296 5.7193 108.312 6.3609L108.36 8.93534C108.376 9.8015 108.384 11.0125 108.384 12.5684V16.0812C108.641 15.8727 109.058 15.4476 109.635 14.806C109.876 14.5333 110.237 14.1243 110.718 13.5789C111.488 12.7128 111.873 12.2476 111.873 12.1835C111.873 12.1033 111.825 12.0551 111.728 12.0391C111.632 12.0231 111.311 12.007 110.766 11.991C110.397 11.991 110.213 11.9188 110.213 11.7744C110.213 11.6461 110.309 11.582 110.501 11.582L112.33 11.6301L114.207 11.582C114.495 11.582 114.64 11.6301 114.64 11.7263C114.64 11.8226 114.311 11.8867 113.653 11.9188C113.22 11.9348 112.867 12.0792 112.595 12.3519C112.097 12.8331 111.464 13.5068 110.694 14.3729L113.461 18.5594C113.605 18.8 113.838 19.1609 114.159 19.6421C114.207 19.7063 114.327 19.8827 114.519 20.1714L114.928 20.7489L115.121 21.0376C115.297 21.3103 115.442 21.4867 115.554 21.5669C115.666 21.6311 115.875 21.6632 116.18 21.6632C116.5 21.6632 116.661 21.7273 116.661 21.8556ZM127.695 11.7504C127.695 11.8627 127.663 11.9348 127.599 11.9669C127.534 11.983 127.31 11.991 126.925 11.991C126.492 11.991 126.235 12.015 126.155 12.0632L126.011 12.3278L125.722 13.1699C125.594 13.5549 125.305 14.3328 124.856 15.5038C124.824 15.6 124.471 16.5865 123.797 18.4632C122.209 22.9063 121.183 25.593 120.717 26.5233C120.14 27.6782 119.402 28.2556 118.504 28.2556C117.991 28.2556 117.573 28.1033 117.253 27.7985C116.948 27.4937 116.796 27.0927 116.796 26.5955C116.796 25.8095 117.229 25.4165 118.095 25.4165C118.384 25.4165 118.616 25.5128 118.793 25.7053C118.873 25.7855 119.009 26.01 119.202 26.3789C119.314 26.5393 119.466 26.6195 119.659 26.6195C119.98 26.6195 120.284 26.3469 120.573 25.8015C120.878 25.2722 121.287 24.2617 121.8 22.7699C121.672 22.5133 121.423 21.9439 121.054 21.0617C120.573 19.8426 119.931 18.2466 119.129 16.2737C118.937 15.7925 118.504 14.7419 117.83 13.1218C117.606 12.5764 117.413 12.2556 117.253 12.1594C117.092 12.0471 116.723 11.983 116.146 11.9669C115.953 11.9669 115.857 11.9028 115.857 11.7744C115.857 11.6461 115.953 11.582 116.146 11.582H116.579C116.82 11.582 117.181 11.59 117.662 11.606C118.143 11.6221 118.512 11.6301 118.768 11.6301L121.704 11.606C121.8 11.59 121.912 11.582 122.041 11.582C122.217 11.582 122.305 11.6381 122.305 11.7504C122.305 11.8947 122.065 11.9589 121.584 11.9429C121.102 11.9268 120.862 12.0311 120.862 12.2556C120.862 12.416 120.926 12.6647 121.054 13.0015C121.231 13.4506 121.327 13.7153 121.343 13.7955C122.129 15.9769 122.77 17.6371 123.268 18.7759C124.759 14.9744 125.505 12.809 125.505 12.2797C125.505 12.1033 125.321 12.015 124.952 12.015C124.182 12.015 123.797 11.9429 123.797 11.7985C123.797 11.6541 123.893 11.582 124.086 11.582C124.246 11.582 124.407 11.59 124.567 11.606C124.872 11.6381 125.289 11.6541 125.818 11.6541C125.882 11.6541 126.115 11.6461 126.516 11.6301C126.933 11.598 127.206 11.582 127.334 11.582H127.478C127.623 11.582 127.695 11.6381 127.695 11.7504ZM135.913 20.4602C135.913 20.6366 135.761 20.8692 135.456 21.1579C134.67 21.9118 133.587 22.2887 132.208 22.2887C130.941 22.2887 130.107 21.9759 129.706 21.3504C129.545 21.1098 129.449 20.8852 129.417 20.6767C129.401 20.4682 129.393 19.9308 129.393 19.0647V17.9098C129.393 17.605 129.393 17.2842 129.393 16.9474C129.377 16.6105 129.369 16.4421 129.369 16.4421V14.2767L129.345 12.5444C129.345 12.2556 129.305 12.0872 129.224 12.0391C129.144 11.991 128.904 11.9669 128.503 11.9669C128.021 11.9669 127.781 11.9028 127.781 11.7744C127.781 11.6782 127.869 11.614 128.046 11.582C129.553 11.5338 130.853 10.7158 131.943 9.12782C132.088 8.90326 132.2 8.79098 132.28 8.79098C132.376 8.79098 132.424 8.90326 132.424 9.12782C132.408 10.5073 132.465 11.2612 132.593 11.3895C132.721 11.5178 133.114 11.582 133.772 11.582C134.446 11.582 134.919 11.5499 135.191 11.4857C135.223 11.4697 135.256 11.4617 135.288 11.4617C135.352 11.4617 135.384 11.5098 135.384 11.606C135.384 11.8306 135.28 11.9429 135.071 11.9429C134.413 11.9589 133.684 11.9669 132.882 11.9669C132.817 11.9669 132.705 11.9589 132.545 11.9429V12.4481C132.545 16.7469 132.601 19.2652 132.713 20.003C132.858 20.9333 133.307 21.3985 134.061 21.3985C134.397 21.3985 134.831 21.1579 135.36 20.6767C135.616 20.4521 135.777 20.3398 135.841 20.3398C135.889 20.3398 135.913 20.3799 135.913 20.4602ZM145.86 13.0737C145.86 13.5388 145.723 13.9238 145.451 14.2286C145.178 14.5173 144.825 14.6617 144.392 14.6617C143.526 14.6617 143.093 14.2607 143.093 13.4586C143.093 13.186 143.197 12.9133 143.406 12.6406C143.454 12.5764 143.478 12.5203 143.478 12.4722C143.478 12.3278 143.374 12.2556 143.165 12.2556C142.62 12.2556 142.203 12.6807 141.914 13.5308C141.754 14.012 141.673 15.191 141.673 17.0677V18.8241L141.697 20.9414C141.697 21.3744 141.914 21.607 142.347 21.6391C142.604 21.6551 142.908 21.6632 143.261 21.6632C143.438 21.6792 143.526 21.7353 143.526 21.8316C143.526 21.9599 143.454 22.0241 143.309 22.0241H142.828C142.684 22.008 141.986 22 140.735 22C140.799 22 140.438 22.008 139.652 22.0241L138.473 22.0481H137.559C137.399 22.0642 137.214 22.0722 137.006 22.0722C136.829 22.0722 136.741 22.016 136.741 21.9038C136.741 21.7915 136.853 21.7353 137.078 21.7353C137.736 21.7193 138.129 21.6551 138.257 21.5429C138.401 21.4145 138.473 21.0536 138.473 20.4602L138.449 13.9639C138.449 13.4185 138.369 13.0416 138.209 12.8331C138.064 12.6246 137.727 12.4962 137.198 12.4481C136.781 12.416 136.541 12.392 136.476 12.3759C136.428 12.3599 136.404 12.3038 136.404 12.2075C136.404 12.1113 136.468 12.0632 136.597 12.0632C136.741 12.0632 136.877 12.0712 137.006 12.0872H137.487C138.722 12.0872 140.053 11.8306 141.481 11.3173C141.561 11.6381 141.601 12.007 141.601 12.4241V13.4346C141.906 12.6486 142.235 12.0952 142.588 11.7744C142.957 11.4536 143.43 11.2932 144.007 11.2932C144.553 11.2932 144.994 11.4617 145.331 11.7985C145.683 12.1353 145.86 12.5604 145.86 13.0737ZM158.381 20.7248C158.381 20.8531 158.253 21.0296 157.996 21.2541C157.306 21.8797 156.456 22.1925 155.446 22.1925C154.788 22.1925 154.307 22.0561 154.002 21.7835C153.713 21.5108 153.521 21.0216 153.425 20.3158C152.703 21.6311 151.716 22.2887 150.465 22.2887C149.776 22.2887 149.214 22.0722 148.781 21.6391C148.364 21.206 148.156 20.6446 148.156 19.9549C148.156 17.9338 149.888 16.7388 153.353 16.3699V15.8647C153.353 14.2607 153.296 13.2742 153.184 12.9053L153.16 12.785C152.935 11.983 152.366 11.582 151.452 11.582C150.922 11.582 150.497 11.7343 150.177 12.0391C149.856 12.3439 149.695 12.6406 149.695 12.9293C149.695 13.0897 149.888 13.186 150.273 13.218C150.85 13.2662 151.139 13.619 151.139 14.2767C151.139 14.6296 151.019 14.9263 150.778 15.1669C150.554 15.3915 150.257 15.5038 149.888 15.5038C149.423 15.5038 149.038 15.3674 148.733 15.0947C148.444 14.806 148.3 14.4451 148.3 14.012C148.3 13.3223 148.645 12.6967 149.334 12.1353C150.024 11.5739 150.93 11.2932 152.053 11.2932C153.721 11.2932 154.884 11.59 155.542 12.1835C156.071 12.6807 156.336 13.5469 156.336 14.782V18.8962C156.336 19.6982 156.344 20.1634 156.36 20.2917C156.44 20.9654 156.673 21.3023 157.058 21.3023C157.33 21.3023 157.667 21.1098 158.068 20.7248C158.148 20.6446 158.213 20.6045 158.261 20.6045C158.341 20.6045 158.381 20.6446 158.381 20.7248ZM153.353 17.8617V16.6827C151.797 16.9875 151.019 17.8697 151.019 19.3293C151.019 20.4521 151.404 21.0135 152.174 21.0135C152.607 21.0135 152.911 20.7729 153.088 20.2917C153.264 19.8105 153.353 19.0005 153.353 17.8617ZM164.38 6.6015C164.38 7.05063 164.227 7.43559 163.922 7.75639C163.618 8.07719 163.249 8.23759 162.816 8.23759C162.367 8.23759 161.99 8.08521 161.685 7.78045C161.38 7.47569 161.228 7.09073 161.228 6.62556C161.228 6.17644 161.38 5.80752 161.685 5.5188C161.99 5.23007 162.383 5.08571 162.864 5.08571C163.297 5.08571 163.658 5.23007 163.946 5.5188C164.235 5.80752 164.38 6.16842 164.38 6.6015ZM166.112 21.8556C166.112 21.9679 166.04 22.0241 165.895 22.0241L162.695 21.9759L160.386 22.0241C160.289 22.0241 160.169 22.0321 160.025 22.0481C159.896 22.0481 159.824 22.0481 159.808 22.0481C159.616 22.0481 159.519 21.984 159.519 21.8556C159.519 21.7594 159.704 21.7033 160.073 21.6872C160.618 21.6712 160.939 21.615 161.035 21.5188C161.131 21.4065 161.18 21.0857 161.18 20.5564V13.6511C161.18 13.0416 161.123 12.6807 161.011 12.5684C160.915 12.4401 160.602 12.3759 160.073 12.3759C159.736 12.3759 159.535 12.3679 159.471 12.3519C159.423 12.3358 159.399 12.2797 159.399 12.1835C159.399 12.0712 159.519 12.015 159.76 12.015C161.524 11.999 163.032 11.7263 164.283 11.197C164.315 11.3895 164.356 11.9188 164.404 12.785L164.428 15.8406V20.3639C164.428 21.0216 164.484 21.4065 164.596 21.5188C164.724 21.6311 165.141 21.6872 165.847 21.6872C166.024 21.6872 166.112 21.7434 166.112 21.8556ZM174.172 21.8316C174.172 21.9599 173.868 22.0241 173.258 22.0241C173.114 22.0241 172.665 22.008 171.911 21.9759C171.526 21.9599 171.149 21.9519 170.78 21.9519C170.427 21.9519 169.769 21.9679 168.807 22L168.085 22.0241C167.732 22.0401 167.556 21.984 167.556 21.8556C167.556 21.7273 167.74 21.6712 168.109 21.6872C168.671 21.7033 168.991 21.6471 169.072 21.5188C169.168 21.3905 169.216 20.9093 169.216 20.0752V7.39549C169.216 6.85012 169.16 6.52932 169.048 6.43308C168.935 6.3208 168.607 6.26466 168.061 6.26466C167.66 6.26466 167.46 6.20852 167.46 6.09624C167.46 5.96792 167.668 5.89574 168.085 5.8797C169.882 5.81554 171.349 5.54286 172.488 5.06165C172.472 5.54286 172.464 8.35789 172.464 13.5068V19.4977C172.464 20.5885 172.488 21.2301 172.536 21.4226C172.6 21.599 172.801 21.6792 173.138 21.6632L173.86 21.6391C174.068 21.6391 174.172 21.7033 174.172 21.8316ZM183.537 18.6797C183.537 19.7544 183.208 20.6286 182.551 21.3023C181.893 21.9599 181.043 22.2887 180 22.2887C179.487 22.2887 178.878 22.1604 178.172 21.9038C177.594 21.6952 177.217 21.591 177.041 21.591C176.736 21.591 176.536 21.7033 176.44 21.9278C176.343 22.1524 176.271 22.2647 176.223 22.2647C176.127 22.2647 176.079 22.2085 176.079 22.0962C176.079 22 176.095 21.8476 176.127 21.6391C176.175 21.3343 176.199 20.805 176.199 20.0511C176.199 20.019 176.199 19.9388 176.199 19.8105C176.183 19.6822 176.175 19.5058 176.175 19.2812V18.8722C176.175 18.6957 176.215 18.6075 176.295 18.6075C176.391 18.6075 176.464 18.7278 176.512 18.9684C176.656 19.8185 177.065 20.5323 177.739 21.1098C178.412 21.6712 179.166 21.9519 180 21.9519C180.53 21.9519 180.955 21.7915 181.276 21.4707C181.612 21.1338 181.781 20.7008 181.781 20.1714C181.781 19.7544 181.629 19.4015 181.324 19.1128C181.099 18.9043 180.498 18.6396 179.519 18.3188C178.316 17.9178 177.442 17.4366 176.897 16.8752C176.367 16.2977 176.103 15.5679 176.103 14.6857C176.103 13.7393 176.423 12.9373 177.065 12.2797C177.707 11.6221 178.493 11.2932 179.423 11.2932C179.776 11.2932 180.385 11.4055 181.252 11.6301C181.38 11.6622 181.476 11.6782 181.54 11.6782C181.893 11.6782 182.158 11.4617 182.334 11.0286C182.366 10.9484 182.406 10.9083 182.455 10.9083C182.567 10.9083 182.623 11.0045 182.623 11.197C182.623 11.197 182.615 11.3494 182.599 11.6541C182.583 11.7183 182.575 11.8306 182.575 11.991C182.575 12.6486 182.615 13.3223 182.695 14.012V14.1323C182.695 14.2607 182.647 14.3248 182.551 14.3248C182.471 14.3248 182.406 14.2526 182.358 14.1083C181.893 12.4722 180.947 11.6541 179.519 11.6541C178.99 11.6541 178.549 11.7985 178.196 12.0872C177.859 12.3759 177.691 12.7449 177.691 13.194C177.691 13.611 177.835 13.9398 178.124 14.1805C178.412 14.4211 178.974 14.6937 179.808 14.9985C181.268 15.5118 182.254 16.0251 182.767 16.5383C183.281 17.0516 183.537 17.7654 183.537 18.6797Z" fill="white"/>
<path d="M95.7922 38.2C95.2822 38.2 94.8467 38.1086 94.4858 37.9257C94.1249 37.7429 93.8482 37.4902 93.6557 37.1678C93.468 36.8406 93.3742 36.4653 93.3742 36.0418C93.3742 35.6135 93.4464 35.2165 93.5907 34.8508C93.7351 34.4803 93.9444 34.1579 94.2187 33.8836C94.493 33.6093 94.8202 33.3952 95.2003 33.2412C95.5805 33.0824 96.004 33.003 96.4707 33.003C96.976 33.003 97.4091 33.0944 97.77 33.2773C98.1309 33.4602 98.4076 33.7152 98.6 34.0424C98.7925 34.3648 98.8888 34.7377 98.8888 35.1612C98.8888 35.5895 98.8142 35.9889 98.665 36.3594C98.5206 36.7251 98.3113 37.0451 98.037 37.3194C97.7628 37.5937 97.4355 37.8102 97.0554 37.969C96.68 38.123 96.259 38.2 95.7922 38.2ZM95.8716 37.3771C96.1892 37.3771 96.4755 37.3218 96.7306 37.2111C96.9856 37.0956 97.2022 36.9393 97.3802 36.742C97.5631 36.5399 97.7026 36.3089 97.7988 36.049C97.8951 35.7844 97.9432 35.5077 97.9432 35.219C97.9432 34.9447 97.8831 34.7017 97.7628 34.4899C97.6425 34.2782 97.4668 34.1146 97.2358 33.9991C97.0049 33.8836 96.7209 33.8259 96.3841 33.8259C96.0713 33.8259 95.785 33.8836 95.5252 33.9991C95.2701 34.1098 95.0512 34.2662 94.8683 34.4683C94.6903 34.6656 94.5531 34.8965 94.4569 35.1612C94.3655 35.4211 94.3197 35.6953 94.3197 35.9841C94.3197 36.2583 94.3775 36.5014 94.493 36.7131C94.6133 36.9248 94.7889 37.0884 95.0199 37.2039C95.2509 37.3194 95.5348 37.3771 95.8716 37.3771ZM102.482 34.2301C102.814 34.2301 103.095 34.2974 103.326 34.4322C103.557 34.5669 103.719 34.7666 103.81 35.0313C103.906 35.2911 103.916 35.6111 103.839 35.9913L103.413 38.1278H102.511L102.929 36.0129C102.992 35.7002 102.963 35.4571 102.843 35.2839C102.722 35.1059 102.504 35.0168 102.186 35.0168C101.854 35.0168 101.58 35.1083 101.363 35.2911C101.147 35.474 101 35.7531 100.923 36.1284L100.519 38.1278H99.6163L100.381 34.2734H101.24L101.024 35.3705L100.879 35.0241C101.062 34.7498 101.291 34.5501 101.565 34.425C101.844 34.295 102.15 34.2301 102.482 34.2301ZM104.918 38.1278L105.987 32.772H106.889L106.413 35.1684L106.131 36.1717L105.987 37.0812L105.777 38.1278H104.918ZM107.25 38.1783C106.932 38.1783 106.658 38.123 106.427 38.0123C106.196 37.8968 106.018 37.7284 105.893 37.5071C105.768 37.2857 105.705 37.0114 105.705 36.6842C105.705 36.3233 105.749 35.9937 105.835 35.6953C105.927 35.3922 106.059 35.1323 106.232 34.9158C106.41 34.6944 106.622 34.526 106.867 34.4105C107.118 34.2902 107.401 34.2301 107.719 34.2301C108.037 34.2301 108.323 34.2974 108.578 34.4322C108.833 34.5621 109.035 34.7546 109.184 35.0096C109.338 35.2599 109.415 35.563 109.415 35.9191C109.415 36.2463 109.36 36.5471 109.249 36.8214C109.143 37.0956 108.992 37.3338 108.795 37.5359C108.597 37.738 108.366 37.8968 108.102 38.0123C107.842 38.123 107.558 38.1783 107.25 38.1783ZM107.178 37.406C107.438 37.406 107.666 37.3459 107.863 37.2256C108.061 37.1005 108.217 36.9296 108.333 36.7131C108.448 36.4965 108.506 36.2463 108.506 35.9624C108.506 35.6641 108.417 35.4283 108.239 35.255C108.061 35.0818 107.811 34.9952 107.488 34.9952C107.233 34.9952 107.005 35.0577 106.802 35.1829C106.605 35.3032 106.449 35.4716 106.333 35.6881C106.218 35.9047 106.16 36.1549 106.16 36.4388C106.16 36.7371 106.249 36.9729 106.427 37.1462C106.605 37.3194 106.855 37.406 107.178 37.406ZM112.133 38.1783C111.758 38.1783 111.428 38.1086 111.144 37.969C110.865 37.8247 110.649 37.6274 110.495 37.3771C110.341 37.1221 110.264 36.8238 110.264 36.4821C110.264 36.049 110.362 35.6641 110.56 35.3272C110.757 34.9856 111.026 34.7185 111.368 34.526C111.715 34.3287 112.109 34.2301 112.552 34.2301C112.932 34.2301 113.262 34.2999 113.541 34.4394C113.825 34.5741 114.044 34.769 114.198 35.0241C114.352 35.2743 114.429 35.5726 114.429 35.9191C114.429 36.3474 114.33 36.7323 114.133 37.074C113.935 37.4156 113.663 37.6851 113.317 37.8824C112.975 38.0797 112.581 38.1783 112.133 38.1783ZM112.191 37.406C112.451 37.406 112.679 37.3459 112.877 37.2256C113.074 37.1005 113.23 36.9296 113.346 36.7131C113.461 36.4965 113.519 36.2463 113.519 35.9624C113.519 35.6641 113.43 35.4283 113.252 35.255C113.074 35.0818 112.824 34.9952 112.501 34.9952C112.246 34.9952 112.018 35.0577 111.816 35.1829C111.618 35.3032 111.462 35.4716 111.346 35.6881C111.231 35.9047 111.173 36.1549 111.173 36.4388C111.173 36.742 111.262 36.9802 111.44 37.1534C111.618 37.3218 111.869 37.406 112.191 37.406ZM116.973 38.1783C116.66 38.1783 116.374 38.111 116.114 37.9762C115.859 37.8415 115.655 37.649 115.501 37.3988C115.352 37.1438 115.277 36.8382 115.277 36.4821C115.277 36.1549 115.33 35.8541 115.436 35.5799C115.546 35.3056 115.7 35.0674 115.898 34.8653C116.095 34.6632 116.324 34.5068 116.583 34.3961C116.848 34.2854 117.137 34.2301 117.45 34.2301C117.772 34.2301 118.049 34.2878 118.28 34.4033C118.515 34.5188 118.693 34.6944 118.814 34.9302C118.934 35.1612 118.989 35.4499 118.98 35.7964C118.97 36.2728 118.884 36.6914 118.72 37.0523C118.556 37.4084 118.328 37.6851 118.034 37.8824C117.741 38.0797 117.387 38.1783 116.973 38.1783ZM117.204 37.406C117.464 37.406 117.693 37.3459 117.89 37.2256C118.087 37.1005 118.244 36.9296 118.359 36.7131C118.475 36.4965 118.532 36.2463 118.532 35.9624C118.532 35.6641 118.443 35.4283 118.265 35.255C118.087 35.0818 117.837 34.9952 117.515 34.9952C117.26 34.9952 117.031 35.0577 116.829 35.1829C116.632 35.3032 116.475 35.4716 116.36 35.6881C116.244 35.9047 116.186 36.1549 116.186 36.4388C116.186 36.7371 116.275 36.9729 116.453 37.1462C116.632 37.3194 116.882 37.406 117.204 37.406ZM118.15 38.1278L118.323 37.2472L118.568 36.2223L118.691 35.1901L118.872 34.2734H119.774L119.009 38.1278H118.15ZM120.55 38.1278L121.315 34.2734H122.174L121.958 35.3705L121.878 35.0529C122.056 34.7402 122.282 34.526 122.557 34.4105C122.831 34.2902 123.165 34.2301 123.56 34.2301L123.394 35.089C123.355 35.0794 123.319 35.0746 123.286 35.0746C123.252 35.0698 123.214 35.0674 123.17 35.0674C122.819 35.0674 122.528 35.1612 122.297 35.3489C122.066 35.5317 121.912 35.8253 121.835 36.2295L121.452 38.1278H120.55ZM125.611 38.1783C125.298 38.1783 125.012 38.111 124.752 37.9762C124.492 37.8415 124.288 37.649 124.139 37.3988C123.989 37.1438 123.915 36.8382 123.915 36.4821C123.915 36.1549 123.968 35.8541 124.074 35.5799C124.184 35.3056 124.338 35.0674 124.536 34.8653C124.733 34.6632 124.961 34.5068 125.221 34.3961C125.486 34.2854 125.772 34.2301 126.08 34.2301C126.398 34.2301 126.672 34.2854 126.903 34.3961C127.134 34.5068 127.312 34.6728 127.437 34.8941C127.562 35.1155 127.625 35.3898 127.625 35.717C127.625 36.0779 127.579 36.4099 127.488 36.7131C127.396 37.0114 127.264 37.2713 127.091 37.4926C126.918 37.7092 126.706 37.8776 126.456 37.9979C126.21 38.1182 125.929 38.1783 125.611 38.1783ZM125.842 37.406C126.097 37.406 126.323 37.3459 126.521 37.2256C126.723 37.1005 126.879 36.9296 126.99 36.7131C127.105 36.4965 127.163 36.2463 127.163 35.9624C127.163 35.6641 127.074 35.4283 126.896 35.255C126.723 35.0818 126.472 34.9952 126.145 34.9952C125.895 34.9952 125.669 35.0577 125.467 35.1829C125.265 35.3032 125.106 35.4716 124.99 35.6881C124.88 35.9047 124.824 36.1549 124.824 36.4388C124.824 36.7371 124.911 36.9729 125.084 37.1462C125.262 37.3194 125.515 37.406 125.842 37.406ZM126.78 38.1278L126.961 37.2472L127.199 36.2223L127.322 35.1901L127.805 32.772H128.708L127.639 38.1278H126.78ZM132.864 38.1278L133.261 36.114L133.37 36.7203L131.897 33.0752H132.828L134.005 35.9913L133.456 35.9985L135.817 33.0752H136.798L133.882 36.7275L134.2 36.114L133.796 38.1278H132.864ZM138.152 38.1783C137.777 38.1783 137.447 38.1086 137.163 37.969C136.884 37.8247 136.668 37.6274 136.514 37.3771C136.36 37.1221 136.283 36.8238 136.283 36.4821C136.283 36.049 136.381 35.6641 136.579 35.3272C136.776 34.9856 137.045 34.7185 137.387 34.526C137.733 34.3287 138.128 34.2301 138.571 34.2301C138.951 34.2301 139.28 34.2999 139.56 34.4394C139.843 34.5741 140.062 34.769 140.216 35.0241C140.37 35.2743 140.447 35.5726 140.447 35.9191C140.447 36.3474 140.349 36.7323 140.151 37.074C139.954 37.4156 139.682 37.6851 139.336 37.8824C138.994 38.0797 138.6 38.1783 138.152 38.1783ZM138.21 37.406C138.47 37.406 138.698 37.3459 138.896 37.2256C139.093 37.1005 139.249 36.9296 139.365 36.7131C139.48 36.4965 139.538 36.2463 139.538 35.9624C139.538 35.6641 139.449 35.4283 139.271 35.255C139.093 35.0818 138.843 34.9952 138.52 34.9952C138.265 34.9952 138.037 35.0577 137.834 35.1829C137.637 35.3032 137.481 35.4716 137.365 35.6881C137.25 35.9047 137.192 36.1549 137.192 36.4388C137.192 36.742 137.281 36.9802 137.459 37.1534C137.637 37.3218 137.887 37.406 138.21 37.406ZM142.913 38.1783C142.59 38.1783 142.313 38.111 142.083 37.9762C141.856 37.8367 141.695 37.637 141.599 37.3771C141.503 37.1125 141.493 36.7901 141.57 36.4099L141.996 34.2734H142.898L142.472 36.3883C142.415 36.7011 142.443 36.9465 142.559 37.1245C142.679 37.2977 142.896 37.3844 143.209 37.3844C143.531 37.3844 143.8 37.2929 144.017 37.1101C144.238 36.9272 144.385 36.6481 144.457 36.2728L144.861 34.2734H145.756L144.991 38.1278H144.132L144.349 37.0307L144.493 37.3771C144.31 37.6514 144.08 37.8535 143.8 37.9835C143.526 38.1134 143.23 38.1783 142.913 38.1783ZM146.534 38.1278L147.299 34.2734H148.158L147.941 35.3705L147.862 35.0529C148.04 34.7402 148.266 34.526 148.54 34.4105C148.815 34.2902 149.149 34.2301 149.544 34.2301L149.378 35.089C149.339 35.0794 149.303 35.0746 149.269 35.0746C149.236 35.0698 149.197 35.0674 149.154 35.0674C148.802 35.0674 148.511 35.1612 148.28 35.3489C148.049 35.5317 147.895 35.8253 147.818 36.2295L147.436 38.1278H146.534ZM152.368 38.1278L153.378 33.0752H155.421C155.936 33.0752 156.376 33.1618 156.742 33.335C157.108 33.5035 157.387 33.7441 157.579 34.0568C157.777 34.3696 157.875 34.7377 157.875 35.1612C157.875 35.6087 157.798 36.0153 157.644 36.3811C157.495 36.7468 157.281 37.0596 157.002 37.3194C156.728 37.5744 156.398 37.7741 156.013 37.9185C155.628 38.058 155.2 38.1278 154.728 38.1278H152.368ZM153.465 37.3338H154.757C155.209 37.3338 155.597 37.2424 155.919 37.0596C156.246 36.8719 156.497 36.6193 156.67 36.3017C156.843 35.9841 156.93 35.6232 156.93 35.219C156.93 34.9447 156.87 34.7065 156.749 34.5044C156.629 34.3023 156.448 34.1459 156.208 34.0352C155.972 33.9245 155.676 33.8692 155.32 33.8692H154.158L153.465 37.3338ZM158.606 38.1278L159.371 34.2734H160.23L160.013 35.3705L159.934 35.0529C160.112 34.7402 160.338 34.526 160.612 34.4105C160.886 34.2902 161.221 34.2301 161.615 34.2301L161.449 35.089C161.411 35.0794 161.375 35.0746 161.341 35.0746C161.307 35.0698 161.269 35.0674 161.226 35.0674C160.874 35.0674 160.583 35.1612 160.352 35.3489C160.121 35.5317 159.967 35.8253 159.89 36.2295L159.508 38.1278H158.606ZM163.861 38.1783C163.476 38.1783 163.142 38.1086 162.858 37.969C162.574 37.8247 162.353 37.6274 162.194 37.3771C162.04 37.1221 161.963 36.8238 161.963 36.4821C161.963 36.0442 162.059 35.6568 162.252 35.32C162.444 34.9832 162.706 34.7185 163.039 34.526C163.375 34.3287 163.758 34.2301 164.186 34.2301C164.547 34.2301 164.86 34.2974 165.125 34.4322C165.389 34.5669 165.594 34.7618 165.738 35.0168C165.887 35.2671 165.962 35.5678 165.962 35.9191C165.962 36.0105 165.957 36.1044 165.947 36.2006C165.938 36.2968 165.923 36.3859 165.904 36.4677H162.634L162.735 35.8686H165.478L165.11 36.0707C165.149 35.8253 165.132 35.6208 165.06 35.4571C164.987 35.2935 164.872 35.1684 164.713 35.0818C164.554 34.9952 164.364 34.9519 164.143 34.9519C163.878 34.9519 163.647 35.0144 163.45 35.1396C163.257 35.2599 163.108 35.4331 163.002 35.6593C162.897 35.8806 162.844 36.1405 162.844 36.4388C162.844 36.7516 162.933 36.9922 163.111 37.1606C163.294 37.329 163.575 37.4132 163.955 37.4132C164.172 37.4132 164.379 37.3796 164.576 37.3122C164.773 37.24 164.937 37.1414 165.067 37.0162L165.442 37.6442C165.24 37.8223 164.999 37.957 164.72 38.0484C164.446 38.135 164.16 38.1783 163.861 38.1783ZM168.489 38.1783C168.176 38.1783 167.89 38.111 167.63 37.9762C167.375 37.8415 167.171 37.649 167.017 37.3988C166.868 37.1438 166.793 36.8382 166.793 36.4821C166.793 36.1549 166.846 35.8541 166.952 35.5799C167.062 35.3056 167.216 35.0674 167.414 34.8653C167.611 34.6632 167.84 34.5068 168.099 34.3961C168.364 34.2854 168.653 34.2301 168.966 34.2301C169.288 34.2301 169.565 34.2878 169.796 34.4033C170.031 34.5188 170.209 34.6944 170.33 34.9302C170.45 35.1612 170.505 35.4499 170.496 35.7964C170.486 36.2728 170.4 36.6914 170.236 37.0523C170.072 37.4084 169.844 37.6851 169.55 37.8824C169.257 38.0797 168.903 38.1783 168.489 38.1783ZM168.72 37.406C168.98 37.406 169.209 37.3459 169.406 37.2256C169.603 37.1005 169.76 36.9296 169.875 36.7131C169.991 36.4965 170.048 36.2463 170.048 35.9624C170.048 35.6641 169.959 35.4283 169.781 35.255C169.603 35.0818 169.353 34.9952 169.031 34.9952C168.775 34.9952 168.547 35.0577 168.345 35.1829C168.148 35.3032 167.991 35.4716 167.876 35.6881C167.76 35.9047 167.702 36.1549 167.702 36.4388C167.702 36.7371 167.791 36.9729 167.969 37.1462C168.148 37.3194 168.398 37.406 168.72 37.406ZM169.666 38.1278L169.839 37.2472L170.084 36.2223L170.207 35.1901L170.388 34.2734H171.29L170.525 38.1278H169.666ZM177.595 34.2301C177.932 34.2301 178.213 34.2974 178.44 34.4322C178.666 34.5669 178.825 34.7666 178.916 35.0313C179.007 35.2911 179.015 35.6111 178.938 35.9913L178.512 38.1278H177.61L178.035 36.0129C178.098 35.6953 178.071 35.4499 177.956 35.2767C177.84 35.1035 177.631 35.0168 177.328 35.0168C177.015 35.0168 176.758 35.1083 176.556 35.2911C176.358 35.4692 176.221 35.7459 176.144 36.1212L175.74 38.1278H174.838L175.264 36.0129C175.326 35.6953 175.3 35.4499 175.184 35.2767C175.069 35.1035 174.859 35.0168 174.556 35.0168C174.243 35.0168 173.986 35.1083 173.784 35.2911C173.587 35.4692 173.45 35.7483 173.373 36.1284L172.968 38.1278H172.066L172.831 34.2734H173.69L173.481 35.3344L173.329 35.0241C173.507 34.7498 173.729 34.5501 173.993 34.425C174.263 34.295 174.556 34.2301 174.874 34.2301C175.124 34.2301 175.345 34.2734 175.538 34.36C175.73 34.4418 175.884 34.5693 176 34.7426C176.12 34.911 176.19 35.1203 176.209 35.3705L175.776 35.2767C175.973 34.9302 176.226 34.6704 176.534 34.4971C176.847 34.3191 177.2 34.2301 177.595 34.2301ZM181.339 38.1783C181.002 38.1783 180.687 38.1374 180.394 38.0556C180.1 37.9738 179.874 37.8752 179.715 37.7597L180.091 37.0668C180.249 37.1774 180.447 37.2689 180.682 37.3411C180.923 37.4084 181.173 37.4421 181.433 37.4421C181.731 37.4421 181.95 37.4012 182.09 37.3194C182.234 37.2376 182.307 37.1245 182.307 36.9802C182.307 36.8743 182.256 36.7949 182.155 36.742C182.054 36.689 181.924 36.6457 181.765 36.612C181.611 36.5783 181.443 36.5423 181.26 36.5038C181.082 36.4653 180.913 36.4123 180.755 36.345C180.601 36.2776 180.473 36.179 180.372 36.049C180.271 35.9191 180.221 35.7459 180.221 35.5293C180.221 35.255 180.298 35.0217 180.451 34.8292C180.605 34.6367 180.82 34.4899 181.094 34.3889C181.373 34.283 181.693 34.2301 182.054 34.2301C182.314 34.2301 182.569 34.259 182.819 34.3167C183.069 34.3744 183.276 34.4562 183.44 34.5621L183.108 35.255C182.935 35.1444 182.747 35.0674 182.545 35.0241C182.347 34.9808 182.155 34.9591 181.967 34.9591C181.674 34.9591 181.455 35.0048 181.31 35.0962C181.171 35.1829 181.101 35.2935 181.101 35.4283C181.101 35.5341 181.152 35.6159 181.253 35.6737C181.354 35.7314 181.481 35.7796 181.635 35.818C181.794 35.8517 181.962 35.8878 182.141 35.9263C182.323 35.96 182.492 36.0105 182.646 36.0779C182.805 36.1453 182.935 36.2439 183.036 36.3738C183.137 36.499 183.187 36.6674 183.187 36.8791C183.187 37.1582 183.108 37.3964 182.949 37.5937C182.795 37.7862 182.578 37.9329 182.299 38.034C182.02 38.1302 181.7 38.1783 181.339 38.1783Z" fill="white"/>
<defs>
<clipPath id="clip0_201_1861">
<rect x="0.0300293" y="2.0188" width="36.0902" height="36.0902" rx="6.01504" fill="white"/>
</clipPath>
</defs>
</svg>
